<?xml version="1.0" encoding="utf-8"?>
<!-- Generator: Adobe Illustrator 17.1.0, SVG Export Plug-In . SVG Version: 6.00 Build 0)  -->
<!DOCTYPE svg PUBLIC "-//W3C//DTD SVG 1.1//EN" "http://www.w3.org/Graphics/SVG/1.1/DTD/svg11.dtd">
<svg version="1.1" id="Layer_1" xmlns="http://www.w3.org/2000/svg" xmlns:xlink="http://www.w3.org/1999/xlink" x="0px" y="0px"
	 viewBox="0 0 145 147" enable-background="new 0 0 145 147" xml:space="preserve">
<rect opacity="0" fill="#00A651" width="145" height="147"/>
<g>
	<polygon fill="#D0CEF5" stroke="#B8C4DF" stroke-width="3" stroke-miterlimit="10" points="62.4,3.9 92.7,42.2 141.7,39.1 
		114.4,79.7 132.6,125.1 85.4,111.9 47.7,143.1 45.8,94.3 4.3,68.2 50.3,51.2 	"/>
	<g>
		<g>
			<path fill="#A7A9AC" d="M65.7,48C48.1,50.8,37.9,63.1,39,80.7c1.7,22.7,26.1,26.6,45.5,26.1c18.8-0.6,48.9-10.2,43.8-31.7
				c-4.5-18.8-18.8-28.3-35.2-29.5c-9.7-0.6-17.9,0.8-27.1,2.5L65.7,48z"/>
		</g>
		<g opacity="0.5">
			<path fill="#939598" d="M112.2,65.3c2.2,8.2,11.4,5.1,11.8,11.4c0.3,5.7-5.1,13-9.8,16.2c-9.5,6.7-21.6,11.4-32.4,13.6
				c14.6-0.6,28.9-4.8,37.5-10.5c5.7-4.4,10.2-13,8.9-20.3c-0.3-3.2-1.9-8.9-3.8-11.1c-3.2-3.8-5.4-1.3-9.5,1"/>
		</g>
		<g>
			<path fill="#A7A9AC" d="M50.4,55c-1.1-7.4-2.3-18.7,0.6-24.9c9.1,4.5,17.6,10.8,26.1,16.4"/>
		</g>
		<g>
			<path fill="#A7A9AC" d="M99.6,47.2c9,1.3,18.6-4.3,27.8-5.3c0.7,5.7-4.9,12.1-6.5,17.7"/>
		</g>
		<g>
			<path fill="#D1D3D4" d="M105.1,61.5c-14-4.7-14.8,3.6-23.4,11c-4.8,4.3-6.4,8-4.5,12.7c2.2,5.4,7.7,4.4,12.8,4.6
				c6.8,0.1,17,0.6,21.9-3.8C117.4,81.1,111.9,67.9,105.1,61.5"/>
		</g>
		<g>
			<path fill="#808285" d="M91.6,75c3.4,4.1,5.8,0.6,7.2-1.9c0.9,1.5,2.6,2,4,2.7l0.7-0.1c-1.5,1.8-2.9,3.2-4,5.5
				c-0.8,1.7-1.5,6.4-4,5c-2.4-1.4-4.4-9.6-4.3-12"/>
		</g>
		<g>
			<path fill="#A7A9AC" d="M100.3,67.1c-2.3,0.2-4.5,0.3-6.2,1c1.9,2.1,5.8,1.9,7.4-0.5"/>
		</g>
		<g>
			<g>
				<path fill="#808285" d="M90.7,74.3c1,2.3,3,3.7,5.5,2.7c1.9-0.8,3-2.7,2.7-4.7c-0.3,0.1-0.6,0.2-1,0.3c1.7,4.1,5.5,5,8.3,1.4
					c0.4-0.5-0.3-1.2-0.7-0.7c-2.3,2.9-5.2,2.5-6.7-1c-0.2-0.6-1.1-0.4-1,0.3c0.3,1.7-1,3-2.4,3.6c-1.9,0.8-3.3-0.8-4-2.4
					C91.3,73.2,90.4,73.7,90.7,74.3L90.7,74.3z"/>
			</g>
		</g>
		<ellipse fill="#FFFFFF" stroke="#808285" stroke-width="2" stroke-miterlimit="10" cx="72.7" cy="61.4" rx="7.5" ry="7.4"/>
		<ellipse fill="#FFFFFF" stroke="#808285" stroke-width="2" stroke-miterlimit="10" cx="116.8" cy="61.1" rx="5.4" ry="5.4"/>
		<g>
			<g>
				<path fill="#A7A9AC" d="M62.8,47.4c-3.8-2.6-6.7-5.5-8.7-9.6c-0.3-0.6-1.1-0.1-0.9,0.5c2.1,4.3,5.2,7.3,9.1,10
					C62.9,48.6,63.4,47.8,62.8,47.4L62.8,47.4z"/>
			</g>
		</g>
		<g>
			<path fill="#939598" d="M64.5,47.2c-6-3.2-9.5-9.2-13-14.9c-1.3,4.8-1.9,15.5,1.3,19.6c2.5-3.5,7.3-4.8,11.8-4.4"/>
		</g>
		<g>
			<g>
				<path fill="#939598" d="M88.6,60.1c5.5,0.2,10.9-0.9,16.4,0c0.6,0.1,0.9-0.9,0.3-1c-5.5-0.9-11.1,0.2-16.7,0
					C88,59,88,60,88.6,60.1L88.6,60.1z"/>
			</g>
		</g>
		<g>
			<g>
				<path fill="#808285" d="M103.7,72.7c0.6,0,0.6-1,0-1C103,71.7,103,72.7,103.7,72.7L103.7,72.7z"/>
			</g>
		</g>
		<g>
			<g>
				<path fill="#808285" d="M101.3,72.3c0.6,0,0.6-1,0-1C100.6,71.3,100.6,72.3,101.3,72.3L101.3,72.3z"/>
			</g>
		</g>
		<g>
			<g>
				<path fill="#808285" d="M103.9,70.1c0.6,0,0.6-1,0-1C103.3,69.1,103.3,70.1,103.9,70.1L103.9,70.1z"/>
			</g>
		</g>
		<g>
			<g>
				<path fill="#808285" d="M96.3,73c0.6,0,0.6-1,0-1C95.6,72,95.6,73,96.3,73L96.3,73z"/>
			</g>
		</g>
		<g>
			<g>
				<path fill="#808285" d="M94.1,73.7c0.6,0,0.6-1,0-1C93.5,72.7,93.5,73.7,94.1,73.7L94.1,73.7z"/>
			</g>
		</g>
		<g>
			<g>
				<path fill="#808285" d="M92.5,71.3c0.6,0,0.6-1,0-1C91.8,70.3,91.8,71.3,92.5,71.3L92.5,71.3z"/>
			</g>
		</g>
		<g opacity="0.5">
			<path fill="#939598" d="M68.3,102.3c-9.5,1.3-14.9-8.6-12.4-16.5c2.5-7.9,8.6-10.8,16.5-12.7c-8.9-2.5-23.5-10.8-12.1-20.9
				c-12.1,3.2-21.6,16.2-19.1,29.1c2.9,14.9,11.8,21.2,26.1,21.2"/>
		</g>
		<g>
			<path fill="#E6E7E8" d="M74.9,64.9c-3.6,0-5.8-3.1-7-5.9c-4.2,4,5.9,11.2,7.3,5.9"/>
		</g>
		<g>
			<path fill="#E6E7E8" d="M113.7,61.5c1.6,2,4.4,1.7,5.9,0c0.6,1.7-0.9,3.3-2.8,3.1c-1.4-0.2-3-2-3.6-3.3"/>
		</g>
	</g>
</g>
<path fill="#FFFFFF" d="M108,0c4.8,11.6-7.6,32-7.6,32s32.5-7.2,35.7-32H108z"/>
</svg>
